<svg xmlns="http://www.w3.org/2000/svg" width="48" height="48" viewBox="0 0 48 48" fill="none">
  <defs>
    <linearGradient id="slGrad" x1="0" y1="0" x2="48" y2="48" gradientUnits="userSpaceOnUse">
      <stop offset="0%" stop-color="#00E5CC"/>
      <stop offset="100%" stop-color="#00B4D8"/>
    </linearGradient>
  </defs>
  <!-- S -->
  <path d="M8 17.5C8 14.5 10.5 12 14 12c3 0 5.5 1.5 6.5 4l-3 1.5c-.5-1.2-1.8-2-3.5-2-1.8 0-3 .9-3 2.2 0 1.2.8 1.8 3.2 2.5 3 .8 6.3 1.8 6.3 5.8 0 3.5-2.8 6-6.8 6-3.5 0-6.2-1.8-7.2-5l3.2-1.3c.5 1.8 2 3 4 3 2 0 3.3-1 3.3-2.5 0-1.5-1-2.2-3.5-3C10.2 22.2 8 21 8 17.5z" fill="url(#slGrad)"/>
  <!-- L -->
  <path d="M26 12.5h3.5v19H38v3.5H26V12.5z" fill="url(#slGrad)"/>
  <!-- Terminal prompt >_ -->
  <path d="M3 5l4 4-4 4" stroke="#00E5CC" stroke-width="1.5" stroke-linecap="round" stroke-linejoin="round" opacity="0.6"/>
  <line x1="9" y1="13" x2="14" y2="13" stroke="#00E5CC" stroke-width="1.5" stroke-linecap="round" opacity="0.6"/>
</svg>